PathFileType	4	(X/Y/Z)	C:/Users/beibeiliu/ov580/test_trc\sequence.25_training_dense_right.trc
DataRate	CameraRate	NumFrames	NumMarkers	Units	OrigDataRate	OrigDataStartFrame	OrigNumFrames
120	120	25	19	mm	120	113	300
Frame#	Time	ThumbCMC			ThumbMCP			ThumbIP			ThumbTip			IndexMCP			IndexPIP			IndexTip			MiddleMCP			MiddlePIP			MiddleTip			RingMCP			RingPIP			RingTip			PinkyMCP			PinkyPIP			PinkyTip			BackHand1			BackHand2			BackHand3	
		X0	Y0	Z0	X1	Y1	Z1	X2	Y2	Z2	X3	Y3	Z3	X4	Y4	Z4	X5	Y5	Z5	X6	Y6	Z6	X7	Y7	Z7	X8	Y8	Z8	X9	Y9	Z9	X10	Y10	Z10	X11	Y11	Z11	X12	Y12	Z12	X13	Y13	Z13	X14	Y14	Z14	X15	Y15	Z15	X16	Y16	Z16	X17	Y17	Z17	X18	Y18	Z18	
112	0.933333	217.147	34.8518	34.071	209.19	47.4833	4.64228	200.754	50.5932	-16.6638	183.161	44.7588	-34.9607	224.892	6.71235	-20.901	223.177	5.1622	-46.6947	223.751	5.70123	-64.8285	209.98	1.26409	-31.8623	207.149	1.97817	-51.4528	209.221	6.77398	-78.7337	185.144	13.9606	-26.0696	179.429	41.299	-24.4158	179.635	44.7431	4.5362	166.785	12.7344	-13.404	164.985	38.9426	-11.5373	173.669	41.1835	12.5444	187.634	-9.72445	19.9612	186.195	-5.56273	48.0414	211.89	2.68304	35.5122	
113	0.941667	218.336	38.2996	36.8431	211.195	52.5185	5.47764	202.441	47.4738	-20.9686	187.646	42.3406	-35.9561	227.43	3.93721	-18.3817	231.805	5.02532	-39.9581	229.593	0.112625	-65.614	210.322	-3.55373	-26.4652	212.355	-1.67959	-54.1587	214.492	0.823869	-73.3624	189.521	10.0874	-24.6013	177.86	35.0306	-26.5302	181.107	42.2337	3.06085	170.414	9.71197	-15.7694	171.23	34.1728	-13.2302	172.917	39.8326	9.39312	191.988	-8.98162	21.4753	188.521	-2.39131	52.0778	214.046	4.62089	40.0489	
114	0.95	216.717	38.1443	35.2736	209.876	48.5977	6.54758	202.808	43.6846	-15.7349	190.602	33.2521	-36.6011	234.057	4.08246	-15.7395	236.508	2.1216	-39.1636	237.369	-2.23913	-60.602	217.705	-7.89835	-25.0441	222.647	-4.03542	-45.8461	224.364	-3.03157	-70.4753	195.683	4.97141	-23.6233	182.67	31.0571	-25.8097	179.897	38.5465	-2.1297	174.418	0.995728	-14.4431	171.828	27.8846	-14.153	173.585	34.7921	7.82474	193.834	-11.6117	28.7281	193.806	-5.2613	50.9498	216.509	6.42835	43.3362	
115	0.958333	214.699	40.1212	39.4347	210.643	48.3598	5.0248	205.742	42.1043	-18.0737	193.931	27.6229	-34.2586	237.081	0.863851	-9.7735	244.231	-0.721204	-34.6667	249.864	-2.67362	-58.1355	227.164	-9.26538	-19.1161	229.991	-10.4916	-46.1872	236.116	-8.22741	-70.1901	197.723	-2.94703	-18.4692	189.616	22.973	-26.8861	181.58	33.1332	-2.0225	183.024	-3.10755	-12.9366	178.419	20.7058	-14.3628	179.861	29.7888	6.68186	198.038	-12.1646	31.4793	192.951	-4.04868	55.0306	217.586	2.33159	44.8625	
116	0.966667	212.871	35.533	37.9497	209.992	43.54	4.04792	207.787	36.7719	-20.668	199.552	23.9431	-34.5055	243.362	1.0209	-5.30541	253.336	-0.619877	-30.3757	255.261	-5.81002	-52.9652	236.216	-9.93445	-14.9569	238.859	-13.3868	-40.3862	244.04	-14.9482	-62.8857	206.042	-4.40113	-18.996	191.958	16.3526	-26.3821	184.321	27.7219	-3.8554	191.059	-8.46997	-11.104	181.591	11.142	-16.6649	183.243	23.8709	7.94008	205.464	-14.5043	31.5057	195.155	-5.24528	60.4447	220.125	6.27204	51.218	
117	0.975	210.038	35.4083	38.7668	209.294	43.5823	5.39428	208.553	30.0913	-15.8013	204.094	17.4842	-36.8248	252.276	4.65527	-2.20358	259.314	2.43114	-22.5636	265.003	-3.51915	-44.259	242.525	-9.92592	-8.38622	249.367	-10.9121	-27.3898	256.692	-15.1483	-54.5924	211.701	-9.71942	-15.0891	198.117	10.8802	-24.1358	187.489	25.0745	-0.431915	194.3	-13.134	-10.9026	185.778	6.09488	-14.8941	184.172	19.692	10.6857	210.073	-14.7629	35.5996	192.76	-7.95623	59.6704	221.551	6.46749	49.6331	
118	0.983333	208.191	38.5703	41.7694	209.748	38.4935	5.56198	210.021	31.7244	-15.6297	209.08	14.8314	-33.6445	253.574	8.90103	6.16171	264.089	6.01641	-14.7592	273.685	1.68466	-36.1564	246.714	-6.59922	-0.843424	257.118	-8.80608	-21.9846	265.696	-15.2103	-46.8948	217.897	-10.3325	-14.464	199.485	9.39739	-22.4162	189.726	22.8068	-2.2437	201.768	-17.615	-4.38881	185.91	4.33254	-10.4222	184.707	15.8872	8.67746	212.027	-16.4866	40.8854	195.365	-9.59553	61.0964	222.387	6.49323	53.6735	
119	0.991667	205.941	37.5774	40.6879	208.15	40.2225	6.42316	211.237	29.8563	-13.2741	210.836	15.0995	-31.3017	255.483	14.2881	10.2229	266.649	8.74142	-11.961	277.546	6.45058	-30.0019	253.843	-3.44135	0.10697	263.866	-4.2197	-19.565	272.416	-9.72134	-39.9456	225.246	-7.61941	-7.86604	204.103	7.89752	-21.7241	192.4	19.2312	-4.6735	206.024	-20.0744	-2.98737	191.914	3.08681	-9.16067	185.866	13.9538	11.2057	214.756	-12.9626	42.443	201.52	-8.33522	61.896	221.629	12.2664	55.1798	
120	1	203.56	39.2677	42.1585	208.043	41.5601	5.14629	211.438	29.5436	-14.1999	212.858	16.3708	-31.216	258.227	17.009	7.76452	269.746	17.7203	-8.79188	280.036	13.7341	-25.4558	257.314	4.61371	1.53033	266.085	1.56744	-15.3855	280.436	-0.245856	-36.9717	228.488	-6.22347	-7.21935	209.41	5.9498	-22.3582	190.996	15.9237	-4.63571	210.254	-18.5724	-2.45094	194.79	-0.95505	-10.2306	185.741	11.8917	12.9236	221.444	-11.3343	40.9139	201.423	-7.54895	65.4445	222.577	12.2763	57.5174	
121	1.00833	201.383	38.958	41.9437	200.167	42.4442	9.32138	210.483	29.9557	-14.847	212.599	18.2494	-32.002	255.525	22.7828	11.8139	271.03	26.2397	-8.79906	284.032	22.7135	-25.1498	255.004	5.59587	5.17152	268.557	9.52437	-13.349	284.005	7.78089	-37.9691	230.829	-6.30602	-7.01932	208.736	6.93824	-20.6751	192.616	17.4282	-1.0365	213.408	-15.4349	-3.28289	197.602	0.801687	-8.92902	185.257	9.62828	14.0832	222.811	-11.0196	42.3644	202.849	-10.6208	62.0663	220.942	11.3035	55.3418	
122	1.01667	198.231	39.7004	41.9115	197.328	42.5023	7.69471	206.585	31.752	-13.2915	213.808	17.3412	-29.5823	255.736	31.615	11.4807	269.427	33.4645	-7.1487	279.572	34.8438	-20.2638	255.291	13.4509	7.39063	267.752	14.813	-12.8512	284.295	19.0082	-34.7851	232.719	-1.93702	-7.80729	210.775	9.64933	-20.855	190.952	14.1071	-1.05811	216.661	-9.6341	-3.35828	199.79	0.581855	-8.73656	185.967	5.3908	16.4123	225.477	-10.9328	42.4994	202.072	-11.8526	64.5654	218.399	17.5517	60.6192	
123	1.025	191.72	38.4689	44.1973	195.257	42.1533	6.76826	203.22	33.4411	-10.391	210.732	23.2845	-33.4829	251.952	38.6003	14.4507	264.341	42.5132	-2.55408	280.046	42.0714	-22.6332	255.413	19.3369	7.22791	268.792	25.617	-12.643	282.419	30.2206	-31.6155	234.878	4.27801	-8.04919	211.958	12.7841	-19.8246	192.476	13.4661	-2.47686	220.41	-12.6778	-2.08426	196.352	-0.137203	-6.74733	185.433	5.50074	14.8624	225.451	-8.72174	43.7615	205.356	-10.1294	65.6859	215.71	18.7052	59.7456	
124	1.03333	189.984	34.5349	42.9478	190.713	39.9154	10.6989	201.171	34.3362	-12.6002	211.27	23.2238	-29.291	249.622	45.261	14.1699	261.077	49.6288	-2.53299	274.24	54.6151	-18.7852	255.918	31.3136	7.8708	266.663	32.1778	-8.29218	282.411	38.7468	-30.6507	235.832	6.85811	-5.92332	213.901	12.2255	-21.0458	192.847	15.026	-1.1215	222.434	-8.95331	-4.77889	199.804	0.0681655	-7.31394	189.622	5.96124	12.6475	226.764	-2.08222	43.0287	206.469	-5.91482	65.9063	214.454	22.4179	59.8401	
125	1.04167	185.607	33.8745	43.6858	187.941	39.6315	7.66404	198.227	34.912	-11.6718	211.885	26.9236	-30.9464	242.323	50.8892	17.4084	254.35	58.8163	0.690623	270.393	63.9433	-17.9061	253.188	34.0984	10.2758	266.05	46.7895	-8.92602	280.646	49.8829	-31.0095	237.082	15.8954	-4.52883	213.164	14.0316	-20.4546	195.066	14.8518	-3.86356	227.457	-2.49387	0.673591	207.96	2.13868	-10.39	191.918	5.57582	9.18458	230.903	-0.490661	44.8496	210.08	-6.91863	63.3767	213.17	24.1287	58.7126	
126	1.05	183.786	30.9384	41.8581	184.857	36.6313	9.40393	196.994	36.1693	-12.9029	209.285	28.2255	-28.1407	236.922	56.9011	18.2227	252.606	62.2631	-0.78246	266.118	67.2226	-15.2118	252.414	40.9852	9.92049	263.255	50.2605	-8.06806	275.984	55.8826	-27.8811	238.922	16.7747	-5.81258	217.022	17.1779	-20.0784	194.937	9.76328	-2.62815	231.054	-1.89939	-0.0976829	208.259	-1.04381	-10.0978	193.121	4.42111	10.1773	230.361	6.39459	45.8359	212.773	-7.63966	64.6396	213.092	25.7449	59.9162	
127	1.05833	181.282	30.5526	41.9202	186.23	34.3453	9.37905	194.162	34.4755	-11.3612	209.396	30.1159	-29.1235	234.84	57.0313	16.8189	246.079	70.7807	0.5219	260.16	78.1272	-14.9801	246.335	47.9484	11.8932	259.606	55.91	-9.10762	271.421	65.9019	-29.2831	236.53	23.9892	-3.13084	213.435	16.9997	-20.1356	196.603	8.76988	-3.18317	232.066	1.95693	-4.41349	207.465	1.8654	-8.39065	193.462	1.08224	11.6023	231.112	7.60384	44.091	209.375	-4.42158	65.6428	208.676	22.4732	59.4343	
128	1.06667	175.093	28.8542	42.7249	179.25	32.2557	10.9795	192.951	34.2416	-10.8057	208.791	32.9046	-31.534	227.52	63.6317	17.7516	237.751	70.5861	3.0002	249.925	81.4103	-12.5125	239.959	50.4123	13.4111	251.635	64.8468	-7.37672	263.396	74.3319	-29.4766	234.355	29.0406	-3.89368	212.354	20.5603	-19.2092	194.811	10.9084	0.481784	232.929	4.8585	-2.97393	211.679	5.61261	-10.2312	196.99	4.82397	8.89358	230.467	11.8346	43.8629	215.004	-3.42755	65.889	205.79	23.5634	60.2328	
129	1.075	177.063	25.3862	42.7192	178.582	32.8482	10.9599	188.371	36.9775	-11.0966	202.806	35.5276	-29.1707	223.739	65.5731	16.1507	228.445	77.2073	3.49437	240.709	87.4343	-11.3719	235.79	58.6308	11.0346	245.158	68.0788	-7.82767	252.908	83.113	-27.4855	231.632	31.9925	-0.91912	214.519	23.3275	-18.6248	194.127	8.95804	0.0433848	233.472	12.3896	3.50714	210.586	3.99516	-8.0263	197.477	0.939582	11.9032	228.514	15.5493	46.6831	212.108	-1.31079	66.8029	204.156	27.3325	61.9355	
130	1.08333	174.536	21.5013	45.9842	174.438	32.627	10.1362	188.371	36.9622	-8.96617	201.908	36.3638	-25.4388	213.859	67.9381	19.1474	217.708	80.8259	4.01318	231.556	90.5108	-9.19992	231.016	59.5945	8.23399	234.294	72.3084	-8.76131	242.593	85.1497	-21.1493	229.941	34.8822	-0.542641	210.332	24.4532	-16.6955	192.502	9.20636	0.747216	232.308	18.6773	2.52345	215.766	9.1853	-8.72549	196.41	4.82428	11.9548	226.754	22.0302	49.1418	217.912	-0.648091	66.3808	203.126	27.4408	61.3057	
131	1.09167	175.336	20.2345	45.0632	171.062	26.0922	14.1488	183.887	36.0273	-9.94995	197.578	38.2429	-24.2862	202.354	70.3876	21.2844	209.192	81.8139	5.83386	216.341	96.8203	-7.95665	220.975	59.7461	10.494	223.606	72.5576	-8.27358	235.126	86.3178	-13.8333	227.757	38.9696	3.12695	210.665	26.5908	-15.4977	196.221	7.83253	2.42557	235.89	24.1615	4.70085	215.438	13.9093	-6.25291	200.19	6.15303	10.7741	224.482	24.6227	50.9954	220.195	8.34824	67.8808	202.018	30.6155	61.8471	
132	1.1	170.284	14.8967	45.8652	169.405	24.1345	12.7384	182.593	36.4221	-9.69916	199.611	38.7757	-21.6379	201.289	68.432	20.5879	206.154	82.1994	4.84476	210.437	103.677	-10.2852	211.755	61.5978	7.20403	214.686	65.9048	-5.85506	220.99	76.0417	-5.7559	225.066	43.0872	1.62914	211.123	29.1961	-14.6738	197.103	11.5513	5.51704	237.961	29.3688	7.99654	217.049	18.5931	-6.15242	205.637	13.3424	12.3384	226.847	29.1703	52.6738	222.023	7.3563	68.9608	198.201	29.0182	65.6089	
133	1.10833	171.365	13.7898	43.4218	175.243	24.8258	10.3947	183.384	33.0706	-7.47912	201.216	39.0396	-22.6907	193.983	74.6427	20.4432	199.879	89.9491	3.22696	208.779	104.042	-14.9871	214.522	60.6982	1.45803	203.171	47.6497	-7.75266	212.753	67.4344	12.1595	225.932	46.6191	0.810871	214.758	27.892	-14.6914	205.914	12.1708	7.09719	239.439	35.0871	3.33858	221.736	19.2528	-7.73775	210.153	16.0557	10.3883	224.547	34.251	48.6254	218.752	17.572	67.1669	195.744	32.2496	60.8512	
134	1.11667	177.178	12.4169	43.2153	175.653	20.4504	11.4783	181.167	34.3617	-12.5936	201.98	42.6139	-25.4367	193.474	72.6122	21.0225	193.424	90.39	5.40008	200.094	106.024	-16.0079	208.028	63.2398	0.591966	203.048	42.089	-9.91136	205.874	60.5566	15.2381	222.407	51.0917	0.167585	214.327	30.9166	-14.0648	205.371	18.8259	13.993	237.626	41.4712	7.94262	222.135	25.6093	-7.08214	212.921	17.057	12.074	222.155	36.862	51.8958	220.162	14.8318	68.4636	198.988	31.3952	61.9234	
135	1.125	176.613	13.4872	40.7673	173.464	20.3211	8.20673	181.419	34.7371	-13.1311	200.845	43.526	-23.8198	187.041	72.1763	20.4124	194.392	89.9581	4.5122	198.371	105.099	-14.0458	209.485	64.1478	-1.77682	204.671	43.131	-13.8343	201.342	48.1262	16.0316	221.987	52.6816	-3.39958	213.994	29.4298	-12.4742	210.532	19.1347	10.585	236.439	43.7526	6.21521	225.464	24.8828	-7.80656	216.582	15.3629	13.539	223.448	40.9354	47.3622	221.068	19.1604	69.4269	197.437	34.6369	57.1415	
136	1.13333	178.237	10.1844	41.0504	178.134	21.2034	10.0037	184.383	33.6932	-9.36459	200.054	45.1747	-23.3963	189.965	71.1697	20.3482	186.583	90.4498	5.18285	193.215	107.349	-15.3463	208.516	66.7996	0.118673	203.329	49.6874	-18.147	201.184	45.2105	13.2567	224.626	54.8851	-0.00658951	217.57	34.0185	-13.9817	211.6	20.505	12.0075	236.486	47.8466	5.34337	227.207	27.7185	-7.72871	216.25	19.1255	13.5243	223.866	44.1265	48.1879	225.562	19.6469	67.06	198.583	35.771	58.5584	
